#!OML:ASF X:\für Bonn\!DataBase\2005_08_10_Bjorn_Final\c3d\bjorn.ASF
:FULLY-SPECIFIED
:DEGREES
423
root -0.0434975 2.15359 10.1702 -2046.69 -14.1302 185.973
lowerback 36.9059 6.7852 5.33089
upperback 26.7332 -0.0770623 2.57561
thorax 11.9525 -4.36367 -0.946071
lowerneck 14.2244 8.23604 -0.299528
upperneck 8.02402 9.9357 -2.74401
head 0.337224 4.56124 -1.17681
rclavicle 6.36111e-015 -3.81667e-014
rhumerus -19.7268 4.29387 -70.6275
rradius 77.9125
rwrist -40.4463
rhand -29.7697 -5.32873
rfingers 7.12502
rthumb -3.09509 -35.286
lclavicle 6.36111e-015 -3.81667e-014
lhumerus -3.51726 -49.162 47.4251
lradius 73.7883
lwrist 11.2221
lhand -32.5566 7.99619
lfingers 7.12502
lthumb -5.78611 757.897
rfemur -428.984 -20.5761 355.667
rtibia 100.772
rfoot 35.0973 5.58141
rtoes -0.935573
lfemur -64.7195 -0.188118 -22.213
ltibia 84.0037
lfoot 24.4101 9.88787
ltoes -2.26029
424
root -0.0460989 2.14968 10.1818 -2046.87 -13.9898 186.117
lowerback 36.6916 6.775 5.25736
upperback 26.6754 -0.0450377 2.5445
thorax 11.945 -4.32618 -0.945398
lowerneck 14.1605 8.03008 -0.190428
upperneck 8.07071 9.67865 -2.75492
head 0.362618 4.43328 -1.18465
rclavicle -1.11319e-014 -3.65764e-014
rhumerus -18.2247 4.11841 -70.4636
rradius 77.2079
rwrist -39.4561
rhand -29.6508 -4.52856
rfingers 7.12502
rthumb -2.98025 -34.4875
lclavicle -1.11319e-014 -3.65764e-014
lhumerus -1.6907 -48.0246 46.7179
lradius 73.1828
lwrist 10.522
lhand -32.9573 7.00436
lfingers 7.12502
lthumb -6.17297 756.894
rfemur -428.745 -20.2179 355.771
rtibia 100.678
rfoot 34.9878 5.59616
rtoes -0.915943
lfemur -64.5425 -0.0642629 -22.0771
ltibia 83.9214
lfoot 24.426 9.89829
ltoes -1.18032
425
root -0.048014 2.14602 10.1938 -2047.05 -13.88 186.254
lowerback 36.4798 6.76992 5.17473
upperback 26.6233 -0.00833419 2.49299
thorax 11.9437 -4.28519 -0.963501
lowerneck 14.1011 7.80273 -0.0215391
upperneck 8.11931 9.40187 -2.78646
head 0.390928 4.29741 -1.20836
rclavicle -1.23246e-014 3.49861e-014
rhumerus -16.7813 3.91287 -70.3676
rradius 76.4817
rwrist -38.4746
rhand -29.6148 -3.67675
rfingers 7.12502
rthumb -2.94545 -33.6362
lclavicle -1.23246e-014 3.49861e-014
lhumerus 0.0743651 -46.9196 46.078
lradius 72.55
lwrist 9.78021
lhand -33.3751 6.11136
lfingers 7.12502
lthumb -6.57631 755.989
rfemur -428.489 -19.88 355.844
rtibia 100.581
rfoot 34.8871 5.56269
rtoes -0.778928
lfemur -64.3625 0.0698889 -21.9841
ltibia 83.8477
lfoot 24.4453 9.8863
ltoes -0.42837
426
root -0.0499935 2.14138 10.2058 -2047.24 -13.7684 186.383
lowerback 36.2549 6.77533 5.06567
upperback 26.5826 0.0270068 2.46302
thorax 11.96 -4.2543 -0.946035
lowerneck 13.9945 7.58305 0.0918532
upperneck 8.21494 9.1267 -2.79443
head 0.437727 4.15894 -1.21316
rclavicle -5.56597e-015 -6.36111e-015
rhumerus -15.3313 3.71862 -70.2644
rradius 75.698
rwrist -37.4351
rhand -29.637 -2.90961
rfingers 7.12502
rthumb -2.96689 -32.8687
lclavicle -5.56597e-015 -6.36111e-015
lhumerus 1.73234 -45.7427 45.6931
lradius 71.8223
lwrist 9.0639
lhand -33.7475 5.29613
lfingers 7.12502
lthumb -6.93582 755.163
rfemur -428.23 -19.5184 355.913
rtibia 100.481
rfoot 34.7849 5.51457
rtoes -0.705412
lfemur -64.1603 0.199738 -21.8771
ltibia 83.7631
lfoot 24.4479 9.96412
ltoes 0.457117
427
root -0.0518834 2.13682 10.2191 -2047.44 -13.6554 186.521
lowerback 36.0236 6.77833 5.00043
upperback 26.5552 0.0683116 2.41416
thorax 11.9994 -4.21248 -0.97478
lowerneck 13.7918 7.3459 0.265115
upperneck 8.40753 8.83713 -2.77784
head 0.531394 4.01224 -1.2141
rclavicle 3.49861e-014 4.77083e-015
rhumerus -13.9031 3.47267 -70.2457
rradius 74.8362
rwrist -36.4151
rhand -29.6301 -2.05636
rfingers 7.12502
rthumb -2.96021 -32.0156
lclavicle 3.49861e-014 4.77083e-015
lhumerus 3.35841 -44.5776 45.3899
lradius 71.0432
lwrist 8.40181
lhand -34.1176 4.53478
lfingers 7.12502
lthumb -7.29308 754.389
rfemur -427.937 -19.1542 355.976
rtibia 100.37
rfoot 34.6849 5.418
rtoes -0.433813
lfemur -63.9464 0.312739 -21.7672
ltibia 83.6766
lfoot 24.4676 10.0021
ltoes 0.801262
428
root -0.0531664 2.13173 10.233 -2047.66 -13.5502 186.666
lowerback 35.8008 6.77786 4.91101
upperback 26.5232 0.0994381 2.36719
thorax 12.0287 -4.18012 -0.985833
lowerneck 13.6036 7.12098 0.437356
upperneck 8.63823 8.55754 -2.75164
head 0.634333 3.8682 -1.21311
rclavicle 9.34288e-015 -1.59028e-015
rhumerus -12.462 3.25663 -70.2636
rradius 73.8663
rwrist -35.3738
rhand -29.589 -1.33004
rfingers 7.12502
rthumb -2.92059 -31.2898
lclavicle 9.34288e-015 -1.59028e-015
lhumerus 4.82269 -43.3369 45.3495
lradius 70.1833
lwrist 7.70956
lhand -34.4997 3.92881
lfingers 7.12502
lthumb -7.66195 753.77
rfemur -427.641 -18.783 356.039
rtibia 100.265
rfoot 34.5612 5.40486
rtoes -0.432762
lfemur -63.7122 0.425663 -21.6501
ltibia 83.5741
lfoot 24.4534 10.171
ltoes 1.41993
